      <svg viewBox="0 0 175 44" fill="none" xmlns="http://www.w3.org/2000/svg"><path d="M95.96 31.925v8.306c-4.575 2.309-8.93 3.466-13.28 3.466-12.014 0-19.228-7.154-19.228-16.156 0-9.698 8.24-17.776 18.77-17.776 2.263-.004 4.51.387 6.64 1.158 1.49.456 2.407 1.034 3.317 1.034.8 0 1.032-1.385 1.148-2.192h1.142l1.032 11.17h-1.374a10.92 10.92 0 0 0-2.962-5.283 11.792 11.792 0 0 0-8.6-3.338c-7.208 0-11.441 5.776-11.441 14.433 0 8.54 5.149 14.426 12.014 14.426a14.31 14.31 0 0 0 6.194-1.515v-8.54c0-2.77-.458-3.81-4.349-3.81v-1.27h14.538v1.27c-3.671 0-3.561 1.15-3.561 4.617zM60.477 11.729v-1.262H48.914v1.269c4.35 0 4.233 1.958 4.233 6.575v11.422a7.519 7.519 0 0 0 .116 1.724l-20.26-20.99h-10.86v1.269c4.574 0 4.574 2.881 4.574 5.541v17.764c0 4.5 0 6.575-4.343 6.575v1.269h11.557v-1.269c-4.35 0-4.35-1.73-4.35-6.575V19.457c.02-.655-.019-1.31-.115-1.958L54.07 43.1h1.942V18.305c0-4.76.226-6.576 4.465-6.576zm-44.18 31.156v-1.269c-2.981 0-4.698-.227-4.698-4.267V16.01c0-4.156 1.375-4.267 4.698-4.267v-1.275H.037v1.269c3.206 0 4.697.11 4.697 4.267v21.346c0 4.04-1.949 4.267-4.697 4.267v1.269h16.26zm158.617-15.067a1.181 1.181 0 0 0-.782-.338 4.456 4.456 0 0 1 0-1.232c.226 0 .672.117.672 0a6.33 6.33 0 0 0-.22-1.7 7.992 7.992 0 0 0-.904-.338 2.168 2.168 0 0 0-.22-.905c.253-.09.52-.13.788-.117 0 0-.232-1.016-.342-1.472a1.928 1.928 0 0 0-.788-.11 5.065 5.065 0 0 1-.336-.795c.22-.117.452-.117.678-.228-.142-.4-.333-.78-.568-1.132h-.788a1.668 1.668 0 0 1-.22-.684c.11-.11.336-.228.446-.339a2.457 2.457 0 0 0-.562-.905c-.22 0-.452.111-.672 0-.11 0-.446-.455-.336-.455.11-.228.336-.339.446-.45-.336-.455-.446-.794-.788-1.022a1.392 1.392 0 0 0-.665.11 4.407 4.407 0 0 0-.349-.448c-.33 0 .232-.567.232-.567-.345-.439-.722-.85-1.13-1.231-.219 0-.445.227-.555.227 0 0-.452-.338-.452-.455 0-.228.452-.339.452-.339a7.855 7.855 0 0 0-1.356-1.231.995.995 0 0 1-.556.11 3.66 3.66 0 0 0-.788-.566s.336-.228.336-.339a10.803 10.803 0 0 1-1.222-.905 2.304 2.304 0 0 1-.904-.911c-.782-1.231-1.796-3.079-4.276-3.399 0 0 .562.795.898 1.361 0 .117 0 .117-.452.117h-.788a6.852 6.852 0 0 1-.452-.683 2.376 2.376 0 0 0-.562-.795c-.452-.338-2.699.912-4.611 1.361.452.566.898.905 1.014 1.133a21.813 21.813 0 0 1 1.911 2.321c.127-.14.279-.254.446-.338 1.466-.228 1.466-.573 1.466-.573s-1.13-.905-.342-.905c0 0 .568.117.788-.111a2.425 2.425 0 0 1 1.576 0c.368.35.707.728 1.014 1.133-.226 0-.446-.117-.678-.117a5.262 5.262 0 0 0-1.912.117c.404.347.78.726 1.124 1.133a2.367 2.367 0 0 0-.898 0 5.157 5.157 0 0 1-.898.228c-.342.11-.672 0-.904.11 1.103.52 2.28.866 3.488 1.023a5.047 5.047 0 0 0 2.254-.456c.11-.11.336-.228.446-.11.338.05.653.208.898.449 2.926 1.816 6.181 6.12 7.195 8.386a16.227 16.227 0 0 1 1.576 6.773 13.137 13.137 0 0 1-2.92 8.62 8.298 8.298 0 0 1-5.497 2.949c.666.788 1.008 2.044 1.344 3.165.419-.061.829-.173 1.222-.333 0-.917-.562-1.927-.562-2.149.364-.25.783-.41 1.221-.462.261.585.561 1.15.898 1.694a4.04 4.04 0 0 0 1.13-.782 7.397 7.397 0 0 0-.562-1.927 9.449 9.449 0 0 1 1.222-.462c.226.345.788.683.898 1.028.325-.333.592-.72.788-1.145-.226-.444-.562-.788-.788-1.232l.898-1.022s.568.456.788.684a3.67 3.67 0 0 0 .788-1.472c-.562-.572-.788-.572-.898-.905.22-.339.336-.8.568-1.139.271.13.533.28.782.45a4.17 4.17 0 0 0 .452-1.583c-.226-.228-.569-.339-.795-.56.117-.573.226-1.14.226-1.14.261.053.524.09.788.111a11.28 11.28 0 0 0 .141-1.779zM138.943 7.081c.11-.345-.116-.684-.116-1.022a16.402 16.402 0 0 1-.672-2.494v-.456c-.452-.221-.904-.338-1.466-.566-.003.354.074.703.226 1.022.278.613.469 1.261.568 1.927.021.35.095.695.22 1.022.396.225.811.414 1.24.567zm2.7 4.31a4.376 4.376 0 0 0-.568-2.038c0-.111-.11-.228-.336-.345-.336-.339-.672-.677-.782-.677-.342-.339-.562-.678-.904-1.022-.336 0-.562.344-.788.455-.11.228-.562.45-.336.567.11.227.336.227.562.338.244.215.508.407.788.573.376.516.784 1.007 1.221 1.471.226.111.342.222.452.222.253.11.486.263.691.45v.006zm1.124 2.95c.219 0 0-.346 0-.457-.452-.683-.788-1.927-.904-1.927-.336-.117-.562 0-1.008-.228a5.623 5.623 0 0 0-1.13-.677c-.11 0-.446-.117-.898-.228h-.562c.16.305.341.597.543.875-.009.233.031.466.116.683a20.3 20.3 0 0 1 1.796.56c.226 0 1.014.912 1.124 1.022.355.253.697.48.923.37v.006zm17.536 19.942c0-.11 0-1.016-.226-1.016-.11-.11-.22-.462-.336-.572a2.376 2.376 0 0 0 0 .905c0 .227-.452.455-.336.572.336.111.562.905.788 1.133.33.444.22-.825.11-1.028v.006zm-23.724-32.19a18.466 18.466 0 0 0-3.268-1.816c-.672.567-1.124 1.022-1.46 1.022-.336 0-.116-.683-.116-1.133a2.427 2.427 0 0 1-.898-.117c-.22.795-.336 1.847-.898 2.044a.86.86 0 0 1-.452.111V1.3c0-.117.452-.911.342-1.022-.413.09-.821.203-1.221.339a3.249 3.249 0 0 1-.898.455 2.435 2.435 0 0 0-.452-.117c-.336-.221-.562-.221-.898-.45-.452 1.362-.562 1.7-.562 1.472-.77-.49-1.486-1.059-2.138-1.699-1.46.228-1.46.456-2.7.905a11.598 11.598 0 0 0-1.569 1.706c-.226.45-.452.677-.678 1.133l1.123.45c.292-.357.556-.736.788-1.134a16.853 16.853 0 0 0 2.59-1.7c.629.52 1.306.975 2.022 1.362.427.278.881.511 1.356.695.314-.443.542-.942.672-1.471.357.165.735.279 1.124.338-.019.457.02.914.116 1.361 0 .228.22.117.672-.11.678-.229 1.35-.34 1.686-.456.788-.45 1.221-1.361 1.912-1.361.649.027 1.28.222 1.832.566.284.128.588.205.898.228.403-.018.739-.474 1.075-.696zm14.837 19.944c.02-.391-.146-.768-.446-1.016-.945.298-1.93.45-2.92.45a9.248 9.248 0 0 1-3.824-.906 1.256 1.256 0 0 0 0 .677c.672.567.672.228 1.222.794.288.436.443.948.446 1.472.116.456.348.573.568 1.232.279-.137.595-.176.898-.111a4.423 4.423 0 0 0-.336-1.232c-.116-.228-.452-.905-.562-1.133.11 0 .446.45 1.014.45.11 0 .446.117.672 0 0 0 .336.228.336.455.157.285.27.593.336.912.226 0 .342 0 .452-.117.231.01.462-.027.678-.111a1.673 1.673 0 0 1-.226-.684c-.116-.227-.342-.788-.342-.788l2.034-.345zM144 20.448s-.226-1.36-.445-2.943c-.233-1.36-.343-1.847-.679-2.377-.172.09-.367.129-.561.111-.192.062-.38.136-.562.222.323 1.112.547 2.252.671 3.405-.054.336-.054.68 0 1.015l1.576.567zm19.241 13.145c0-5.775-2.022-10.651-4.495-13.367-1.46-1.477-3.055-2.383-4.612-2.383a2.266 2.266 0 0 0-2.358 2.038c0 4.083 1.57 6.687 2.59 8.953a2.92 2.92 0 0 1 .446 1.589c.11 1.477-1.124 4.193-1.912 5.67a2.427 2.427 0 0 0-1.124-.228c-.869 0-1.619.614-1.796 1.472-.342 0-.568-.228-.904-.228a2.453 2.453 0 0 0-2.443 2.463 5.934 5.934 0 0 0 .904 3.294h1.045c-.11-.35-.446-2.038-.556-2.506a1.563 1.563 0 0 1 .446-1.465c.452-.684 1.576-.456 1.576-.456a4.996 4.996 0 0 0-.788 2.39c.082.704.274 1.392.568 2.037h.898a5.03 5.03 0 0 0 0-1.847c-.019-.344.018-.69.109-1.022 0-.228.556.45.556.45a2.08 2.08 0 0 0 .452-1.01c0-.351-.672-.234-.788-.573-.015-.39.063-.779.226-1.133a2.15 2.15 0 0 1 1.466-.35c.336 0 .446.116.898.116.336 0 .446-.671.446-1.016a1.6 1.6 0 0 0 .562.345c.336.11.452.11.788.222.501.218.958.527 1.35.911v-.117c-.116-.462.11-1.016-.226-1.231a6.723 6.723 0 0 0-1.008-.672c-.226-.234-.568-.234-.678-.461-.11-.111-.11-.222-.11-.45s.11-.566.22-.566c.232-.111.342 0 .788.221.421.243.829.508 1.222.795 0 0 .116.227.116.117.446-.228.446-.339.446-1.023-.446-.566 0-.677-.678-1.126-.497-.121-.984-.275-1.46-.462.069-.28.182-.546.336-.788a.28.28 0 0 1 .458.11 5.825 5.825 0 0 0 1.796.678.682.682 0 0 0-.11-.788 2.872 2.872 0 0 0-.788-.8 8.175 8.175 0 0 1-1.014-.333 4.912 4.912 0 0 0-.226-1.14c0-.22.226-.11.452-.11.446-.11 2.357.567 2.357.567a1.39 1.39 0 0 0-.335-1.023 2.57 2.57 0 0 0-1.014-.677c-.788-.228-1.46-.11-2.022-.456a1.803 1.803 0 0 1-.623-.979 5.15 5.15 0 0 1 1.221-.221 3.705 3.705 0 0 1 1.57.117c.226.105 1.014.794 1.356.794a5.739 5.739 0 0 0-.452-1.231c-.336 0-.904-.678-1.124-.795a2.529 2.529 0 0 0-2.022-.11 3.113 3.113 0 0 1-1.013 0c-.117-.228.226-.567.116-.795 0-.117-.452-.228-.452-.455.819-.114 1.647-.151 2.473-.111.35.232.725.422 1.118.566a2.313 2.313 0 0 0-.11-1.477c-.562-.111-1.118 0-1.576-.111a4.58 4.58 0 0 0-1.221 0c-.336 0-.672-.111-1.014-.111a1.86 1.86 0 0 1-.336-1.022s2.816-.111 3.054-.228a1.725 1.725 0 0 1-.458-.45c-.446-.794-.788-.91-1.344-.91-.342 0-1.13.344-1.576.227 0-.905.446-1.7 1.124-1.7a5.099 5.099 0 0 1 3.824 1.848c2.816 2.943 4.275 8.497 4.275 12.468a29.783 29.783 0 0 1-.446 4.87c.291.092.595.13.898.111.414-1.61.637-3.263.666-4.925zm-24.976-18.816s-.336-1.471-.562-2.155a2.93 2.93 0 0 0-.562-1.016.872.872 0 0 0-.226.45c-.226.345-.562.566-.336.905.03.446.187.873.452 1.231.336.364.788.253 1.234.585zM150.97 25.86c-.11-.338-.452-.456-.672-.677a14.71 14.71 0 0 0-1.716-.554c-.22.11.568.566.678.788a60.534 60.534 0 0 0 1.575 1.471l.135-1.028zm-9.895-7.253a2.744 2.744 0 0 0-.22-.905 8.15 8.15 0 0 0-.452-1.232 1.748 1.748 0 0 0-.11-.794.407.407 0 0 1-.336-.11 3.874 3.874 0 0 1-.794-.118c0 .345.116.912.116 1.232.139.43.328.844.562 1.231a.88.88 0 0 0 .452.456c.348.043.562.27.782.27v-.03zm18.782 18.25c0-.111-.348-.345-.452-.345a1.679 1.679 0 0 0-.226-.677c-.226-.117-.226-.228-.452-.228a.884.884 0 0 1-.11.456c0 .221-.226.338-.116.56.11.221.226.234.452.345.11.11.452 1.022.556 1.133.116-.08.116-.764.348-1.213v-.031zm-7.989-7.567a2.238 2.238 0 0 0-.22-1.232c-.342 0-.568-.228-.788-.228-.22 0-.342-.572-.678-.455.116.228.336 1.36.452 1.588.349.501.544 1.094.562 1.706.358-.38.592-.861.672-1.38zm12.253 13.028c.232-.11 0-.338 0-.45-.11 0-.556-1.009-.898-1.477 0 0-.11.339-.22.579a2.932 2.932 0 0 0-.336 1.127c.336.221.446.11.898.11.187.026.373.063.556.111zm-19.895-18.693a8.41 8.41 0 0 1-1.569-1.133c-.342 0-.342 0-.678.339-.226 0-.336.11-.452.338.336.228.452.34.788.573.109.11.226.11.561 0h.898c.226 0 .452.11.452-.117zm-2.699-2.038c.226-.345-.226-.345-.336-.456a4.823 4.823 0 0 0-.452-.794 2.43 2.43 0 0 0-.336-.566c-.11-.111-.562 0-.788 0a1.036 1.036 0 0 0-.562.11c.226.228.452 1.023.562 1.023.11.227.11.338.342.455.53.019 1.056.095 1.57.228zm8.209 8.497a1.303 1.303 0 0 0-.342-.911 4.304 4.304 0 0 1-.22-1.016c-.116-.222-.568-.912-.788-1.232-.226-.221-.226-.788-.336-1.126l-1.35.227a11.19 11.19 0 0 1 1.57 2.716c.116.338 1.124 3.743 1.124 3.743.342-.117-.11-1.81 0-1.927.116-.246.116-.357.342-.474zm-4.386-3.965c0-1.022-.232-1.022-.672-1.472-.171.349-.361.688-.568 1.016.276.284.472.637.568 1.022.21-.205.435-.394.672-.566zm15.961 16.008a.45.45 0 0 0-.22-.45h-.568c-.22-.116-.33-.116-.446 0-.336.333-.336.9-.568 1.232h1.356c.226-.24.446-.363.446-.812v.03zM146.7 28.94V28.6c-.094-.18-.17-.37-.226-.566-.11-.228-.22-.567-.568-.684 0-.117-.104.456-.22.684-.126.18-.238.37-.336.566.22.339.336.56.556.905.091.204.208.394.348.567.187-.362.336-.741.446-1.133zm-9.113-12.118a9.638 9.638 0 0 0-4.276-1.231c0-.117-.226-.228 0-.339.204-.132.395-.284.568-.455a3.98 3.98 0 0 0 .654-1.373c.336-.684.672-.456.898-1.928-.336 0-.452.228-.788.34.13-.325.206-.668.226-1.017.175-.63.287-1.275.336-1.927.459-.125.84-.45 1.038-.887.002-.311.043-.622.122-.923a4.06 4.06 0 0 0-.11-1.706 5.013 5.013 0 0 0-1.35-1.582 2.268 2.268 0 0 0-1.692-.117 1.793 1.793 0 0 0-1.569 1.927 4.663 4.663 0 0 0-2.81.794 6.49 6.49 0 0 0-1.796-.566h-1.014a2.181 2.181 0 0 0-.788-1.232 4.018 4.018 0 0 0-2.022-.788c-.342 0-.672-.117-1.014.111-.342.228-.898.456-1.014.905a4.216 4.216 0 0 0-.446 1.589c.074.58.302 1.129.66 1.588.116.222.226.222.452.339.245.068.476.183.678.339.11.117-.116.455-.116 1.133-.025.345.014.691.116 1.022.011.419.085.834.22 1.231-.336 0-.562-.339-.788-.11.086.43.239.846.452 1.23a7.519 7.519 0 0 1 1.46 1.848c0 .117 0 .338.116.338-.795.056-1.585.169-2.364.34a16.78 16.78 0 0 0-2.138.91c0 .269.037.536.11.795.66-.305 1.337-.57 2.028-.795a5.727 5.727 0 0 1 2.248-.344c.116.227.226.566.116.683a26.034 26.034 0 0 0-3.94 2.038c.116.228 0 .566.226.794a30.09 30.09 0 0 1 3.824-1.94c.446-.11.446 0 .672 0 .116.112.342.567.562.567.342 0 .678-.338 1.014-.455a12.67 12.67 0 0 1 1.912-.56c.226-.118.226-.346.226-.573.101-.17.14-.37.11-.567 0-.11-.452-.221-.678-.677-.22-.339 0-.684-.11-.684-.336.234-.782.456-.898 0-.11-.338-.11-.788.226-.905a4.618 4.618 0 0 1 3.487 0c.22 0 .33.228.33.456.116.228 0 .45-.22.683-.342.111-.671-.344-.671 0-.034.469-.346.87-.788 1.016-.116.111 0 .456.11.795 0 .11 0 .338.109.338a5.49 5.49 0 0 1 1.46.456c.452.222 1.222.905 1.356.788.336-.222.446-.566.672-.788a23.984 23.984 0 0 1 3.824 1.927c.226 0 .226-.456.226-.683-.562-.339-2.248-1.232-2.443-1.361-.452-.11-.672-.339-1.124-.45v-.923c.782.228 2.358.345 3.933 1.231.086-.32.306-.548.19-.665zm2.7 5.782c-.452-.222-1.014-.45-1.466-.677a4.129 4.129 0 0 1-1.124-.795c-.22 0-.336.111-.452.111-.22.117-.336.228-.562.345.31.4.649.777 1.014 1.127.116.228.452.228.678.228h1.124c.342-.111.568-.111.794-.339h-.006zm1.905 2.832c.226 0 .226-.45 0-.45a3.048 3.048 0 0 1-1.905-1.132c-.35.167-.688.356-1.014.566.191.423.458.807.788 1.133.336.339 1.007.111 1.576-.117h.555zm16.193 16.009h-.641a.856.856 0 0 0-.788.56 1.852 1.852 0 0 1-.452.8.668.668 0 0 0 .452.118h1.13c.11-.117.11-.462.226-.69-.031-.252.079-.474.079-.813l-.006.025zm-10.451-9.427c-.116-.228-.226-.572-.336-.794.002-.23-.035-.46-.11-.677 0 0-.788.566-.904.677.452.567.22.905.336 1.36 0 .222.452.34.568.684 0 .111-.226 1.133-.226 1.133a4.048 4.048 0 0 0 .672-2.383zm8.435 7.592a3.049 3.049 0 0 0-2.589-1.582c-.562 0-1.222.683-1.686 2.838a5.879 5.879 0 0 0-.11 1.921l1.008.117c.226-.35.226-.917.458-1.367 0-.221.22-.221.446-.221.326.27.626.572.898.899.177-.314.291-.659.336-1.016 0-.111-.336-.333-.452-.333a1.597 1.597 0 0 0-1.008-.468c-.116-.443.562-1.016.562-1.016a2.662 2.662 0 0 1 1.569.905c.233-.117.342-.455.568-.683v.006zm-10.683-7.031a8.193 8.193 0 0 1-.336-1.7c0-.221-.342-.566-.562-.794-.11.339-.446.573-.446 1.022.269.266.494.574.666.911.11.228 0 1.232.11 1.478.342-.345.568-.468.568-.917zm-9.217-8.836v-.234a3.481 3.481 0 0 1-.788-1.354.82.82 0 0 0-.562-.117.69.69 0 0 0-.452-.111c.084.385.196.764.336 1.133.116.227.342.45.452.45.319.144.664.224 1.014.233zm3.598 3.282a4.736 4.736 0 0 0-.788-.678 1.26 1.26 0 0 1-.898-.794 2.485 2.485 0 0 0-.452-.683c-.226 0-.336.117-.562.228-.226.227-.678.227-.898.566a2.3 2.3 0 0 0 .446.683c.179.239.411.43.678.56a32.02 32.02 0 0 0 1.014.574 2.389 2.389 0 0 0 1.46-.456zm-20.127-18.7a1.614 1.614 0 0 0-.226-.677 4.606 4.606 0 0 1-.336-.911c.013-.648.087-1.293.22-1.927-.446-.111-1.008-.111-1.221.345a1.708 1.708 0 0 0-.22 1.015c.026.572.099 1.14.22 1.7a6.753 6.753 0 0 1-1.124.794c.116.684.226 1.927.226 1.927.123-.21.275-.4.452-.566.446-.339.672-.567 1.221-1.022.116-.222.226-.111.562-.339.11-.11.226-.228.226-.338zm14.727 17.111a3.383 3.383 0 0 1-.562-1.471c-.22-.222.226-1.022-.336-1.022-.226-.111-.898-.339-.898-.339a2.704 2.704 0 0 0 0 1.36c.123.554.394 1.063.782 1.472.116.117.678.117.788.117a.352.352 0 0 1 .226-.117zm-2.81-6.459a5.872 5.872 0 0 0-3.151-.677 5.295 5.295 0 0 0-3.256.905c.099.427.249.84.446 1.232.116 0 .226.227.336.227.226-.227.452-.566.794-.677v.45c-.018.308.019.616.11.91 0 .34.336.34.782.34.445 0 .568-.795.568-.905.142.362.428.65.788.794 0 0 .788 0 .788-.117.109-.567.219-.677.109-1.133.376.256.717.56 1.014.905.21-.225.363-.498.446-.794a3.32 3.32 0 0 0 .226-1.46zm5.846 9.747a5.22 5.22 0 0 1-.788-.788 5.357 5.357 0 0 1-1.008-.794h-1.466a2.643 2.643 0 0 0 1.124 1.471c.452.327 1.35.222 2.138.111zm5.283 8.054a21.571 21.571 0 0 1-.219-3.079 2.03 2.03 0 0 0-.569-.911 2.418 2.418 0 0 0-.555-.332v.449c.02.267.056.532.11.794 0 .228.336 1.81.336 2.272.568.123.568.573.897.807zm-22.82-26.525c-.116-.228-1.014 0-1.221 0-.562.11-1.57.455-1.57.677a5.476 5.476 0 0 0-.116 1.231c.116.34.116.678.226 1.016.19-.228.42-.42.678-.566.11-.11 1.344-1.016 1.454-1.133.226-.222.342-.11.452-.339-.019-.67.207-.67.097-.886zm12.027 16.094s-.226-1.021-.336-1.477v-1.81c-.452.11-.562.227-.672.227-.342.222-.562.34-.562.567 0 .45.11.905.11 1.133 0 .338 0 .566.11.677.311.083.612.199.898.345 0 .11.452.338.452.338zm-2.357-1.36c.066-.495.026-1-.117-1.478-.445.117-1.349.234-1.349.573a2.46 2.46 0 0 0 0 .905c.103.25.143.524.116.794-.059.26-.059.529 0 .788.11-.222.672-.45.788-.677.223-.277.412-.581.562-.905zm4.275 4.76a12.461 12.461 0 0 1-1.221-1.232c-.226-.228-.116-.56-.336-.794a1.387 1.387 0 0 0-.678.117 2.424 2.424 0 0 0-.904.117c.116.221.116.449.342.56.349.371.65.785.898 1.231.116.222.678.339 1.124.339.28-.046.545-.162.769-.339h.006zm-14.171-16.89a7.659 7.659 0 0 0-2.138.794c-.562.34-.788.567-1.349.906-.044.345-.004.695.116 1.022l.11 1.36c.226-.338.897-1.022 1.221-1.477a5.816 5.816 0 0 1 1.796-1.355c.135-.404.217-.824.244-1.25zm7.532 13.712c.336-.338 0-.905 0-1.231-.11-.339 0-.677-.11-1.022a.611.611 0 0 0-.562-.339c-.226 0-.788-.339-.788-.11-.562 0-.116.566-.116.904 0 .456 1.13 1.589 1.13 1.589.22.117.22-.013.446.21zm-2.584-3.282a4.86 4.86 0 0 0-.226-.794 1.55 1.55 0 0 0-.562-.683c-.11 0-.336-.222-.452-.111a4.02 4.02 0 0 1-.226 1.016c.227.278.418.584.568.911.098.396.248.777.446 1.133.11-.456.452-.677.452-1.472zm-2.248.678s-.342-1.022-.452-1.583c-.11-.345.11-.794-.11-1.139-.116-.221-.452-.338-.678-.45-.226 0-.452.45-.452.906.031.46.107.916.226 1.36 0 .111.226.228.452.34.336.227.69.344 1.014.566zm9.669 9.285c-.116-.462-.226-1.022-.342-1.478a1.403 1.403 0 0 0-.672-.228c-.226 0-.452-.117-.672 0 .11.345.11.567.22.912.357.397.768.742 1.222 1.022.128.012.244-.228.244-.228zm-13.945-13.25c-.11-.795-.336-1.478-.336-1.7a6.333 6.333 0 0 1 .226-1.7c-.452.222-1.014.567-1.466.795v.56c0 .228.117 1.478.117 1.848.109.338.109.677.226 1.022.123.206.201.437.226.677a.85.85 0 0 0 .335-.339 3.69 3.69 0 0 0 .672-1.163zm10.794 8.047a2.93 2.93 0 0 0-.788.222 1.214 1.214 0 0 0-.782.227c.013.382-.026.763-.116 1.133-.226.339-.788.573-.788 1.14.185.047.372.084.562.11.21-.12.4-.274.562-.455.336-.111.562-.34.898-.456.226-.11.452-1.921.452-1.921zm11.807 13.263c-.336.11-1.008-.228-1.008.449a3.628 3.628 0 0 0-.452 1.139h1.221a1.57 1.57 0 0 0 .239-1.588zm1.221-2.95a2.626 2.626 0 0 0-1.344-1.847 19.77 19.77 0 0 0-2.699-1.133c-.672.11-1.802.11-2.474.456a1.585 1.585 0 0 1 0-1.232c.11-.221 1.221-.221 1.57-.221 1.221.11 1.912.332 2.254.332.201.224.488.35.788.345a5.52 5.52 0 0 0-.226-.905 8.327 8.327 0 0 0-1.222-.456 5.192 5.192 0 0 0-1.686-.45c-.334.057-.67.094-1.008.112 0-.111.11-.222.22-.345.198-.286.425-.55.678-.788h1.771c.418.119.827.269 1.222.45.336 0 0-.567 0-.906a1.618 1.618 0 0 0-.452-.345 4.903 4.903 0 0 1-1.222-.45 3.392 3.392 0 0 0-1.575-.22 9.225 9.225 0 0 0-1.014.338c-.52.81-.931 1.685-1.222 2.604 0 .228-.562 1.589-.562 1.81-.019.12-.056.237-.11.345-.452-.117-2.48-.455-3.054.117-.331.32-.597.703-.782 1.127a1.914 1.914 0 0 0-1.222-.456 1.957 1.957 0 0 0-1.569.918c0 .117-.898 1.847-.788 3.41.118.715.431 1.383.904 1.928h1.221c-.11-.462-.336-1.028-.562-1.706a10.29 10.29 0 0 1 .226-2.462 3.05 3.05 0 0 1 .672-.345c.226-.228.342-.117.678-.117.11 0 .11.117.11.117-.446.455-.446.905-.562 1.588.172 1.02.476 2.01.904 2.95h.892a17.482 17.482 0 0 1-.11-2.506c.009-.386.085-.768.226-1.127.226.11.452.11.672.234.342.222.342.45.342.782.034.347-.005.697-.116 1.028v.536c.001.346.04.69.116 1.028h.898a4.012 4.012 0 0 1 .22-1.478c.116-.45 0-.69.116-1.028a.88.88 0 0 1 .226-.56c.296-.211.68-.253 1.014-.111.019.34-.02.682-.116 1.01a9.55 9.55 0 0 1-.446 1.705.886.886 0 0 1-.226.462h1.387c.151-.328.264-.673.335-1.028.336.338.788.11 1.014.11.336-.11.562-.449.782-.67-.446-.34-1.46-.228-1.46-.69-.226-.788 0-.9 0-1.355 0-.677-.671-.905-1.349-1.022a2.507 2.507 0 0 0-.898-.11c-.226.11-.452.455-.672.455a3.526 3.526 0 0 0-.788-.456 5 5 0 0 1-.898-.227 2.11 2.11 0 0 1 .336-.567c.11-.11.446-.45.562-.45.266-.073.551-.033.788.111.562.111 1.014.228 1.124.228.158.05.308.122.446.216.342-.216.342-.444.561-.444a4.078 4.078 0 0 1 1.576-.344c.562 0 1.014 1.022 1.35 1.366.11.222.898 1.232 1.35 2.15.226-.111.336-.34.562-.34a4.167 4.167 0 0 0-.226-1.23c-.336-1.029-1.008-1.232-1.008-1.478.22 0 .672.227.898.227.313.123.614.276.898.456.11.11.336.228.452.339.058.423.171.837.336 1.231a.427.427 0 0 0 .11.345c.318-.684.654-.794.873-1.36h-.012zM126.592 27.59c0-.11-.342-.11-.562-.11-.22 0-.452.11-.678.11a3.477 3.477 0 0 0-.446 1.133c-.129.277-.28.543-.452.794 0 0 1.014-.227 1.222-.227.338-.174.612-.452.782-.795.162-.271.21-.597.134-.905zm-7.085-5.781a2.259 2.259 0 0 0-.672-1.016c-.116.11-.672.45-.788.677-.201.089-.39.202-.562.339 0 .227.11.345.226.572 0 .222.11.788.11 1.232 0 0 .342-.228.342-.456.413-.477.855-.928 1.325-1.348h.019zm10.005 12.585c-.11-.117-.11-.345-.22-.573a8.463 8.463 0 0 1-.226-1.699h-.904c-.226.117-.336 0-.556.117.009.486.165.959.446 1.355.318.683 1.441.8 1.441.8h.019zm-5.62-6.459v-.794a3.186 3.186 0 0 1 0-1.022c-.11-.228-.336-.111-.452 0h-.672a8.279 8.279 0 0 0-.22 1.582 4.55 4.55 0 0 0-.232.684c-.208.366-.395.745-.562 1.132.342.111.678-.116.904-.116.235-.09.46-.204.672-.34.203-.364.385-.74.544-1.126h.018zm-3.597-3.633a2.733 2.733 0 0 1-.452-.794c-.73.161-1.444.39-2.132.684a8.94 8.94 0 0 1 .788 1.816 2.5 2.5 0 0 0 .672-.456c.341-.44.71-.858 1.105-1.25h.019zm.452 1.848c-.226-.111-.678.11-1.014.11-.336 0-1.124 0-1.124.117.11.222.11.45.226.678.167.313.245.666.226 1.022.055.373.055.753 0 1.126 0 0 1.423-.818 1.423-1.046.11-.339 0-.567.11-.912-.007-.38.038-.759.134-1.126l.019.03zm3.933 6.348c-1.221-.456-1.124-.912-1.576-1.133a9.129 9.129 0 0 0-2.809-1.367 6.434 6.434 0 0 0-1.46 0c-.898 1.588-1.222 3.078-1.912 4.76a143.3 143.3 0 0 0-.336 1.021 3.336 3.336 0 0 0-1.686-.566 1.832 1.832 0 0 0-1.912 1.231 2.425 2.425 0 0 0-1.35-.227 2.375 2.375 0 0 0-1.832 1.23c-.301.377-.418.87-.318 1.343-.509.26-.909.698-1.124 1.232-.226.91.562 2.462.898 2.838h1.13c-.226-1.028-.678-1.478-.342-2.506.226-.56 1.008-.788 1.222-.893 0-.462-.562-.794-.452-1.231.22-.567.898-.567 1.576-.45-.116.678-.226 1.583-.336 2.463a7.597 7.597 0 0 0 .446 2.617h1.221a3.55 3.55 0 0 1-.22-1.028 2.555 2.555 0 0 1-.11-.9 5.25 5.25 0 0 0 .11-1.23c1.124-.573.788.227 1.008.449 0 0 .452-1.022-.11-1.466-.11-.117-.788 0-.788-.117.05-.271.125-.537.226-.794.161-.317.349-.62.562-.905.11-.11.452-.11.898 0 .344.043.683.117 1.014.222-.116.332-.562 1.022-.672 1.36a11.642 11.642 0 0 0-.342 4.428h1.222a18.068 18.068 0 0 1 0-2.506c.22-1.016.562-1.127.672-1.127a.76.76 0 0 1 .562.456c.226 1.139-.446 2.148-.446 3.177h.898a.776.776 0 0 0 .446-.462c.314-.66.578-1.343.788-2.044a2.583 2.583 0 0 0-.446-1.688 5.82 5.82 0 0 0-1.466-1.366 1.462 1.462 0 0 1 0-1.023c0 .117.452-.11.678-.11.538.09 1.065.24 1.569.45.395.146.772.339 1.124.572.467.477.815 1.06 1.014 1.7 0 0 .226-1.485.226-1.928a5.955 5.955 0 0 0-1.576-1.231 11.148 11.148 0 0 0-2.357-1.023c.116-.166.194-.358.226-.56a4.55 4.55 0 0 1 1.795 0c1.089.326 2.119.823 3.055 1.472.109-.213.186-.441.226-.678 0 0-1.576-1.022-1.46-1.367a4.005 4.005 0 0 0-1.222-.794c-.672-.11-2.022-.221-2.022-.221.208-.279.432-.544.672-.795h.898c.784.098 1.546.33 2.254.684 1.008.45 1.57.794 1.686 1.022a9.16 9.16 0 0 1 .342-1.022l.018.03zm-2.7 9.18a2.496 2.496 0 0 0-.885-1.04c-.788 0-.562 1.23-.788 1.846-.11.111-.226.345-.11.462h1.686s.079-1.077.079-1.299l.018.03zm40.705-32.19l-1.356-1.022-.446-.566 1.222-.339.58 1.927zm-4.837-2.038h-.562l-.678.45-.898-.678 1.008-.566 1.13.794zm-22.485-.338a.855.855 0 0 1-.788.566 3.74 3.74 0 0 0-1.911-1.36c-.11-.456.226-.912.446-1.232a1.269 1.269 0 0 1 1.221-.339c.347.027.67.191.898.456.336.4.226 1.311.116 1.878l.018.03zm-3.487 1.231c-.226.228-.788.11-1.35.11 0-.227 0-.676-.226-.676-.22-.228-.562-.228-.562-.456-.446-.456.672-.11 1.221 0 .226-.019 2.132.437.898 1.004l.019.018zm2.138 1.231s-.11.228-.226.228a1.112 1.112 0 0 1-.569.456c-.109 0-.219.228-.219.339-.233.324-.62.498-1.014.455a.89.89 0 0 1-.898-.455s.116 1.36.116 1.699a.11.11 0 0 0 .03.082.109.109 0 0 0 .08.035c.446.11.562.56.788.788a.375.375 0 0 0 .226.117c.446.339 1.46.794 1.008.794 0 .228-.336.788-.446.788a5.422 5.422 0 0 0-1.35-.788 35.903 35.903 0 0 1-.336-.683 3.865 3.865 0 0 0-.678-.456c0-.788-.116-.788-.116-1.582 0-.111-.22-1.361-.22-1.361.143-.27.384-.472.672-.566 0 0 2.119-.007 3.133.104l.019.006zm-6.078-2.265c0 .455-.33.683-.672 1.132-.22.345-.336.117-.898.117h-.562c0-.344.226-.455.562-.794.261-.219.568-.374.898-.455.208-.117.654-.228.654-.007l.018.007zm-2.92-1.232c0 .111 0 .228-.11.228a8.245 8.245 0 0 0-.898.677c-.568.339-.678.905-1.014.905a3.906 3.906 0 0 1-.898-1.022 1.329 1.329 0 0 1-.226-1.016c.226-.677 1.008-.905 1.46-1.022.281-.018.559.063.788.228.428.21.642.21.88 1.004l.018.018zm7.648 10.086c0 .11-.11.677-.11.677-.452-.111-.794-.45-1.35-.45 0-.338 0-.338.11-.455.454-.067.918.006 1.331.21l.019.018zm-5.4-6.12c0 .116-.11.794-.11.905-.11.683-.11.905-.226 1.927v.338c-.11.228-.562.339-.788.573-.11.339-.11.566-.446.677-.336.111-.562.45-.788.339-.342-.228-.226-.794 0-1.133a2.069 2.069 0 0 1 1.008-.684c.452-.11.336-1.015.336-1.132.116-.222 0-.56 0-.789-.22.111-.22 0-.672.111a1.184 1.184 0 0 1-.898-.45 5.14 5.14 0 0 1-1.014-1.138 7.544 7.544 0 0 1 1.576-.111h1.46c.324.092.544.32.544.548l.018.018zm-.898 6.12a4 4 0 0 1-.562.338 3.403 3.403 0 0 1-.672.339 4.027 4.027 0 0 1-.226-.677c.251-.077.509-.128.77-.154.231-.01.462.037.672.135l.018.019z" fill="#fc6c0c"/></svg>